<svg t="1756219227568" class="icon" viewBox="0 0 1024 1024" version="1.1" xmlns="http://www.w3.org/2000/svg" p-id="5906" xmlns:xlink="http://www.w3.org/1999/xlink" width="200" height="200"><path d="M291.281147 560.546858c-2.257993 0-4.515987-0.564498-6.209482-1.128997L202.090408 536.273429c-8.467475-2.257993-14.676957-9.031974-16.93495-16.93495-10.16097-39.514884-40.643881-71.126792-80.158766-81.852261-8.467475-2.257993-14.676957-9.031974-16.93495-16.93495l-21.450937-83.545755c-2.257993-8.467475 0-16.93495 6.209482-23.144433 29.353914-28.224917 40.643881-70.562293 30.48291-110.077177-2.257993-8.467475 0-16.93495 6.209482-23.144432l61.53032-60.401323c4.515987-4.515987 10.725469-6.77398 16.93495-6.77398 2.257993 0 4.515987 0.564498 6.209482 1.128996 10.16097 2.822492 20.32194 3.951488 30.482911 3.951489 29.918412 0 59.272326-11.854465 80.158765-32.740904 4.515987-4.515987 10.725469-6.77398 16.93495-6.773981 2.257993 0 4.515987 0.564498 6.209482 1.128997l84.110254 22.579934c8.467475 2.257993 14.676957 9.031974 16.93495 16.93495 10.16097 39.514884 40.643881 71.126792 80.158765 81.852261 8.467475 2.257993 14.676957 9.031974 16.934951 16.93495L547.563396 302.006615c2.257993 8.467475 0 16.93495-6.209482 23.144432-29.353914 28.224917-40.643881 70.562293-30.482911 110.077178 2.257993 8.467475 0 16.93495-6.209482 23.144432L442.566703 519.338479c-4.515987 4.515987-10.725469 6.77398-16.93495 6.77398-2.257993 0-4.515987-0.564498-6.209482-1.128997-10.16097-2.822492-20.32194-3.951488-30.48291-3.951488-29.918412 0-59.272326 11.854465-80.158766 32.740904-5.080485 4.515987-11.289967 6.77398-17.499448 6.77398zM152.979052 205.477398v1.128997c7.338479 46.853363-5.644983 94.835722-36.127894 130.963616l-0.564499 0.564498 14.676957 58.14333 0.564499 0.564498c44.595369 16.93495 79.029768 52.498346 94.835722 97.093716l0.564498 0.564498 57.578831 16.370452 0.564499-0.564498c28.789416-23.708931 65.481808-36.692393 102.738699-36.692393 9.596472 0 19.192944 1.128997 28.789415 2.822492h1.128997l42.901874-41.772877v-1.128997c-7.338479-46.853363 5.644983-94.835722 36.127895-130.963616l0.564498-0.564499-14.676957-58.143329-0.564498-0.564499c-44.595369-16.93495-79.029768-52.498346-94.835723-97.093715l-0.564498-0.564499-57.578831-16.370452-1.128997 0.564499c-28.789416 23.144432-65.481808 36.127894-102.738699 36.692392-9.596472 0-19.192944-1.128997-28.789416-2.822492h-1.128996l-42.337376 41.772878z" p-id="5907"></path><path d="M309.345094 422.244763C254.024256 422.244763 208.864388 377.084895 208.864388 321.764057s45.159868-100.480706 100.480706-100.480705 100.480706 45.159868 100.480705 100.480705-45.159868 100.480706-100.480705 100.480706z m0-152.979052c-28.789416 0-52.498346 23.708931-52.498346 52.498346s23.708931 52.498346 52.498346 52.498347 52.498346-23.708931 52.498346-52.498347-23.708931-52.498346-52.498346-52.498346zM602.884234 588.771775c-1.693495 0-3.951488 0-5.644984-0.564498l-60.401323-14.112459c-8.467475-1.693495-15.241455-7.902977-17.499448-16.370452-7.902977-25.402426-28.789416-45.159868-54.75634-51.369349-6.209482-1.693495-11.289967-5.080485-14.676957-10.725469-3.38699-5.644983-4.515987-11.854465-2.822492-18.063947 2.257993-10.725469 12.418964-18.628445 23.708931-18.628446 1.693495 0 3.38699 0 5.644983 0.564499 37.256891 8.467475 68.868798 34.998897 84.674752 69.997795l0.564498 0.564498 34.998898 8.467475 0.564498-0.564498c22.015436-18.628445 50.240353-28.789416 79.594267-28.789416 3.951488 0 8.467475 0 12.418964 0.564499h0.564498l24.837927-26.531423v-0.564498c-5.644983-32.740904 2.257993-67.175303 21.450937-93.706725l0.564499-0.564499-10.725469-34.434399-0.564498-0.564498c-31.047409-11.289967-56.449835-35.563396-69.997795-65.481808l-0.564498-0.564499-34.998898-8.467475-0.564498 0.564498c-15.805954 12.983462-33.869901 22.015436-54.191841 25.966924-8.467475 1.693495-16.93495 2.822492-25.402426 2.822492-3.38699 0-7.338479 0-10.725469-0.564498-6.209482-0.564498-12.418964-3.38699-16.370452-8.467476-3.951488-5.080485-6.209482-11.289967-5.644983-17.499448 1.128997-12.418964 11.289967-22.015436 23.70893-22.015436h9.031974c5.080485 0 10.16097-0.564498 15.241455-1.693495 15.241455-3.38699 28.789416-10.725469 39.514885-22.579934 4.515987-5.080485 10.725469-7.338479 17.499448-7.338478 1.693495 0 3.951488 0 5.644984 0.564498l60.401323 14.112459c8.467475 1.693495 15.241455 7.902977 17.499449 16.370452 7.902977 25.402426 28.789416 45.159868 54.756339 51.369349 8.467475 1.693495 15.241455 7.902977 17.499449 16.370452l18.063947 59.272327c2.257993 8.467475 0.564498 17.499449-5.644984 23.70893-18.628445 19.757442-24.837927 47.982359-16.93495 73.384785 2.257993 7.902977 0.564498 16.93495-5.644983 23.708931l-42.337376 45.159868c-4.515987 5.080485-10.725469 7.902977-17.499449 7.902976-1.693495 0-3.38699 0-5.644984-0.564498-5.644983-1.128997-11.289967-1.693495-16.93495-1.693495-20.886439 0-40.643881 8.467475-55.320838 23.708931-3.951488 4.515987-10.725469 7.338479-16.93495 7.338478z" p-id="5908"></path><path d="M608.529217 483.775083c-40.643881 0-73.949283-33.305402-73.949283-73.949284s33.305402-73.949283 73.949283-73.949283c40.643881 0 73.949283 33.305402 73.949284 73.949283s-33.305402 73.949283-73.949284 73.949284z m0-109.512679c-19.757442 0-36.127894 16.370452-36.127894 36.127894 0 19.757442 16.370452 36.127894 36.127894 36.127894 19.757442 0 36.127894-16.370452 36.127894-36.127894 0-20.32194-16.370452-36.127894-36.127894-36.127894z" p-id="5909"></path><path d="M300.31312 945.53473c-12.983462 0-24.273429-10.725469-24.273429-24.273429v-61.53032l-65.481808-209.428886c-10.725469-15.805954-19.757442-32.176406-27.09592-48.546858-2.822492-5.644983-2.822492-12.418964-0.564499-18.628445s6.77398-10.725469 12.418964-13.547961c3.38699-1.693495 6.77398-2.257993 10.16097-2.257993 9.596472 0 18.063947 5.644983 22.015436 14.112459 7.338479 15.805954 15.805954 31.047409 25.402425 44.595369 1.128997 1.693495 2.257993 3.951488 2.822492 6.209482l67.739801 216.202866c0.564498 2.257993 1.128997 4.515987 1.128997 7.338479v41.772877h303.70011v-68.304299c0-12.983462 10.725469-24.273429 24.273429-24.273429h153.54355l16.934951-206.606395c1.128997-12.418964 11.289967-22.015436 23.70893-22.015436h46.288865l-66.610805-114.028665c-2.257993-3.951488-3.38699-7.902977-3.38699-11.854466 0-172.171996-139.99559-312.167585-312.167586-312.167585-12.983462 0-24.273429-10.725469-24.273429-24.273429 0-12.983462 10.725469-24.273429 24.273429-24.273429 48.546858 0 95.964719 9.596472 140.560089 28.224917 42.901874 18.063947 81.287762 44.030871 114.593164 77.336274 33.305402 33.305402 59.272326 71.69129 77.336273 114.593164 18.063947 42.337376 27.095921 86.932745 28.224918 133.22161v0.564498l84.110253 145.076075c4.515987 7.338479 4.515987 16.370452 0 24.273429-4.515987 7.338479-12.418964 11.854465-20.886439 11.854465H869.327453l-16.93495 206.606395c-1.128997 12.418964-11.289967 22.015436-23.708931 22.015435h-151.850055v68.3043c0 12.983462-10.725469 24.273429-24.273429 24.273429H300.31312z" p-id="5910"></path></svg>