<svg xmlns="http://www.w3.org/2000/svg" viewBox="0 0 24 24" fill="none">
  <path d="M22.5 11.3L12.7 1.5c-.4-.4-1-.4-1.4 0L9.6 3.2l2.1 2.1c.4-.1.9-.1 1.3.2.4.3.7.8.7 1.3 0 .5-.2 1-.6 1.3l2 2c.4-.4.9-.6 1.3-.6.9 0 1.7.8 1.7 1.7s-.8 1.7-1.7 1.7-1.7-.8-1.7-1.7c0-.3.1-.6.2-.8l-1.9-1.9v5c.2.1.4.2.5.4.4.4.4 1 0 1.4-.4.4-1 .4-1.4 0-.4-.4-.4-1 0-1.4.1-.1.3-.2.5-.3V9.8c-.2.1-.4.1-.5.1-.4 0-.8-.2-1.1-.5-.3-.3-.5-.7-.5-1.1 0-.1 0-.2.1-.3L8.1 6.3l-6.6 6.6c-.4.4-.4 1 0 1.4l9.8 9.8c.4.4 1 .4 1.4 0l9.8-9.8c.4-.4.4-1 0-1.4z" fill="#F05032"/>
</svg>