<svg xmlns="http://www.w3.org/2000/svg" viewBox="0 0 24 24" fill="none">
  <circle cx="12" cy="12" r="11" fill="#FCC624"/>
  <path d="M12 3c-1.5 0-2.7 1.2-2.7 2.7 0 .8.4 1.5 1 2 .3.2.5.5.5.8v1.2c0 .3-.2.5-.5.5s-.5-.2-.5-.5V8.5c0-.8-.7-1.5-1.5-1.5S7 7.7 7 8.5v2.2c0 1.4 1.1 2.5 2.5 2.5h.2c.3 1.2 1.4 2.1 2.6 2.1h.4c1.2 0 2.3-.9 2.6-2.1h.2c1.4 0 2.5-1.1 2.5-2.5V8.5c0-.8-.7-1.5-1.5-1.5S15 7.7 15 8.5v1.2c0 .3-.2.5-.5.5s-.5-.2-.5-.5V8.3c0-.3.2-.6.5-.8.6-.5 1-1.2 1-2C15.7 4.2 14.5 3 13 3h-1z" fill="#000"/>
  <circle cx="10.5" cy="6.5" r="0.5" fill="#FCC624"/>
  <circle cx="13.5" cy="6.5" r="0.5" fill="#FCC624"/>
</svg>